<?xml version="1.0" encoding="UTF-8"?>
<svg width="48" height="48" viewBox="0 0 48 48" xmlns="http://www.w3.org/2000/svg">
  <defs>
    <linearGradient id="octopusGradient" x1="0%" y1="0%" x2="100%" y2="100%">
      <stop offset="0%" stop-color="#7466F0"/>
      <stop offset="100%" stop-color="#A891FF"/>
    </linearGradient>
    <filter id="shadow" x="-20%" y="-20%" width="140%" height="140%">
      <feDropShadow dx="0" dy="1" stdDeviation="1" flood-color="#0002"/>
    </filter>
  </defs>
  
  <!-- Background Circle -->
  <circle cx="24" cy="24" r="23" fill="white" stroke="#F0F0F0" stroke-width="1"/>
  
  <!-- Octopus Body -->
  <g filter="url(#shadow)">
    <ellipse cx="24" cy="22" rx="16" ry="15" fill="url(#octopusGradient)"/>
    
    <!-- Tentacles -->
    <!-- Left Tentacles -->
    <path d="M12,28 C10,32 6,34 4,33 C2,32 3,28 6,27 C9,26 10,29 12,28" fill="url(#octopusGradient)" stroke="none"/>
    <path d="M14,32 C12,36 8,40 5,39 C2,38 3,34 7,33 C11,32 12,35 14,32" fill="url(#octopusGradient)" stroke="none"/>
    <path d="M18,34 C17,38 15,43 12,43 C9,43 9,39 12,38 C15,37 16,39 18,34" fill="url(#octopusGradient)" stroke="none"/>
    
    <!-- Right Tentacles -->
    <path d="M36,28 C38,32 42,34 44,33 C46,32 45,28 42,27 C39,26 38,29 36,28" fill="url(#octopusGradient)" stroke="none"/>
    <path d="M34,32 C36,36 40,40 43,39 C46,38 45,34 41,33 C37,32 36,35 34,32" fill="url(#octopusGradient)" stroke="none"/>
    <path d="M30,34 C31,38 33,43 36,43 C39,43 39,39 36,38 C33,37 32,39 30,34" fill="url(#octopusGradient)" stroke="none"/>
  </g>
  
  <!-- Eyes -->
  <circle cx="18" cy="20" r="4" fill="white"/>
  <circle cx="30" cy="20" r="4" fill="white"/>
  <circle cx="18" cy="20" r="2" fill="#333"/>
  <circle cx="30" cy="20" r="2" fill="#333"/>
  
  <!-- Smile -->
  <path d="M20,26 C22,28 26,28 28,26" stroke="white" stroke-width="1.5" stroke-linecap="round" fill="none"/>
  
  <!-- Blush -->
  <circle cx="16" cy="24" r="2" fill="#FF9999" opacity="0.5"/>
  <circle cx="32" cy="24" r="2" fill="#FF9999" opacity="0.5"/>
</svg>
