<svg width="120" height="120" viewBox="0 0 120 120" xmlns="http://www.w3.org/2000/svg">
  <rect width="120" height="120" fill="#ffffff" stroke="#e5e5e5" stroke-width="2"/>
  <g fill="#000000">
    <!-- 模拟二维码模式 -->
    <rect x="10" y="10" width="6" height="6"/>
    <rect x="20" y="10" width="6" height="6"/>
    <rect x="40" y="10" width="6" height="6"/>
    <rect x="50" y="10" width="6" height="6"/>
    <rect x="70" y="10" width="6" height="6"/>
    <rect x="84" y="10" width="6" height="6"/>
    <rect x="94" y="10" width="6" height="6"/>
    <rect x="104" y="10" width="6" height="6"/>
    
    <!-- 定位图案左上 -->
    <rect x="10" y="10" width="26" height="26" fill="none" stroke="#000" stroke-width="2"/>
    <rect x="14" y="14" width="18" height="18" fill="none" stroke="#000" stroke-width="2"/>
    <rect x="18" y="18" width="10" height="10"/>
    
    <!-- 定位图案右上 -->
    <rect x="84" y="10" width="26" height="26" fill="none" stroke="#000" stroke-width="2"/>
    <rect x="88" y="14" width="18" height="18" fill="none" stroke="#000" stroke-width="2"/>
    <rect x="92" y="18" width="10" height="10"/>
    
    <!-- 定位图案左下 -->
    <rect x="10" y="84" width="26" height="26" fill="none" stroke="#000" stroke-width="2"/>
    <rect x="14" y="88" width="18" height="18" fill="none" stroke="#000" stroke-width="2"/>
    <rect x="18" y="92" width="10" height="10"/>
    
    <!-- 随机数据点 - 不同的模式 -->
    <rect x="40" y="20" width="6" height="6"/>
    <rect x="70" y="20" width="6" height="6"/>
    <rect x="30" y="30" width="6" height="6"/>
    <rect x="60" y="30" width="6" height="6"/>
    <rect x="80" y="30" width="6" height="6"/>
    <rect x="20" y="40" width="6" height="6"/>
    <rect x="50" y="40" width="6" height="6"/>
    <rect x="90" y="40" width="6" height="6"/>
    <rect x="40" y="50" width="6" height="6"/>
    <rect x="60" y="50" width="6" height="6"/>
    <rect x="80" y="50" width="6" height="6"/>
    <rect x="100" y="50" width="6" height="6"/>
    <rect x="30" y="60" width="6" height="6"/>
    <rect x="70" y="60" width="6" height="6"/>
    <rect x="20" y="70" width="6" height="6"/>
    <rect x="50" y="70" width="6" height="6"/>
    <rect x="80" y="70" width="6" height="6"/>
    <rect x="40" y="80" width="6" height="6"/>
    <rect x="60" y="80" width="6" height="6"/>
    <rect x="90" y="80" width="6" height="6"/>
    <rect x="50" y="90" width="6" height="6"/>
    <rect x="70" y="90" width="6" height="6"/>
    <rect x="100" y="90" width="6" height="6"/>
    <rect x="40" y="100" width="6" height="6"/>
    <rect x="80" y="100" width="6" height="6"/>
    <rect x="90" y="100" width="6" height="6"/>
  </g>
  <text x="60" y="115" text-anchor="middle" font-family="Arial" font-size="8" fill="#666">抖音二维码</text>
</svg> 