<?xml version="1.0" encoding="UTF-8"?>
<svg width="20px" height="20px" viewBox="0 0 20 20" version="1.1" xmlns="http://www.w3.org/2000/svg" xmlns:xlink="http://www.w3.org/1999/xlink">
    <title>公安备案图标</title>
    <g id="公安备案图标" stroke="none" stroke-width="1" fill="none" fill-rule="evenodd">
        <path d="M10,0 C15.5228475,0 20,4.4771525 20,10 C20,15.5228475 15.5228475,20 10,20 C4.4771525,20 0,15.5228475 0,10 C0,4.4771525 4.4771525,0 10,0 Z M10,1 C5.02943725,1 1,5.02943725 1,10 C1,14.9705627 5.02943725,19 10,19 C14.9705627,19 19,14.9705627 19,10 C19,5.02943725 14.9705627,1 10,1 Z" id="椭圆形" fill="#4A4A4A" fill-rule="nonzero"></path>
        <path d="M10,3 C13.8659932,3 17,6.13400675 17,10 C17,13.8659932 13.8659932,17 10,17 C6.13400675,17 3,13.8659932 3,10 C3,6.13400675 6.13400675,3 10,3 Z M10,4 C6.6862915,4 4,6.6862915 4,10 C4,13.3137085 6.6862915,16 10,16 C13.3137085,16 16,13.3137085 16,10 C16,6.6862915 13.3137085,4 10,4 Z" id="椭圆形" fill="#4A4A4A" fill-rule="nonzero"></path>
        <polygon id="星形" fill="#4A4A4A" points="10 6 11.2447174 8.49139928 14 8.90983006 12 10.8573223 12.4894348 13.5901699 10 12.3 7.51056516 13.5901699 8 10.8573223 6 8.90983006 8.75528258 8.49139928"></polygon>
    </g>
</svg>
