<?xml version="1.0" encoding="UTF-8"?>
<svg width="512" height="512" viewBox="0 0 48 48" xmlns="http://www.w3.org/2000/svg">
  <defs>
    <linearGradient id="octopusGradient" x1="0%" y1="0%" x2="100%" y2="100%">
      <stop offset="0%" stop-color="#7466F0"/>
      <stop offset="100%" stop-color="#A891FF"/>
    </linearGradient>
    <filter id="shadow" x="-20%" y="-20%" width="140%" height="140%">
      <feDropShadow dx="0" dy="1" stdDeviation="1" flood-color="#0002"/>
    </filter>
  </defs>
  
  <!-- 章鱼主体 -->
  <circle cx="24" cy="20" r="16" fill="url(#octopusGradient)" filter="url(#shadow)"/>
  
  <!-- 章鱼眼睛 -->
  <circle cx="20" cy="16" r="3" fill="white"/>
  <circle cx="28" cy="16" r="3" fill="white"/>
  <circle cx="20" cy="16" r="1.5" fill="#333"/>
  <circle cx="28" cy="16" r="1.5" fill="#333"/>
  
  <!-- 章鱼触手 -->
  <path d="M12,26 C8,32 6,38 8,42" stroke="url(#octopusGradient)" stroke-width="3" fill="none" stroke-linecap="round"/>
  <path d="M16,30 C14,36 14,40 16,44" stroke="url(#octopusGradient)" stroke-width="3" fill="none" stroke-linecap="round"/>
  <path d="M24,32 C24,38 24,42 24,46" stroke="url(#octopusGradient)" stroke-width="3" fill="none" stroke-linecap="round"/>
  <path d="M32,30 C34,36 34,40 32,44" stroke="url(#octopusGradient)" stroke-width="3" fill="none" stroke-linecap="round"/>
  <path d="M36,26 C40,32 42,38 40,42" stroke="url(#octopusGradient)" stroke-width="3" fill="none" stroke-linecap="round"/>
  
  <!-- 章鱼嘴巴 -->
  <path d="M20,22 C22,24 26,24 28,22" stroke="#333" stroke-width="1.5" fill="none" stroke-linecap="round"/>
</svg>
