<svg xmlns="http://www.w3.org/2000/svg" viewBox="0 0 200 200" width="200" height="200">
  <!-- 渐变定义 -->
  <defs>
    <linearGradient id="octopusGradient" x1="0%" y1="0%" x2="100%" y2="100%">
      <stop offset="0%" stop-color="#A891FF" />
      <stop offset="100%" stop-color="#7466F0" />
    </linearGradient>
    <radialGradient id="eyeGradient" cx="50%" cy="50%" r="50%" fx="25%" fy="25%">
      <stop offset="0%" stop-color="#FFFFFF" />
      <stop offset="100%" stop-color="#E0E0E0" />
    </radialGradient>
  </defs>
  
  <!-- 背景圆形 -->
  <circle cx="100" cy="100" r="95" fill="white" />
  
  <!-- 头部 -->
  <ellipse cx="100" cy="90" rx="60" ry="55" fill="url(#octopusGradient)" />
  
  <!-- 触手 -->
  <!-- 左侧触手 -->
  <path d="M60,120 Q40,150 30,180 Q28,185 25,180 Q20,160 50,120" fill="url(#octopusGradient)" />
  <path d="M50,120 Q25,140 15,170 Q13,175 10,170 Q5,150 40,110" fill="url(#octopusGradient)" />
  <path d="M70,120 Q55,150 50,180 Q48,185 45,180 Q40,160 60,120" fill="url(#octopusGradient)" />
  
  <!-- 右侧触手 -->
  <path d="M140,120 Q160,150 170,180 Q172,185 175,180 Q180,160 150,120" fill="url(#octopusGradient)" />
  <path d="M150,120 Q175,140 185,170 Q187,175 190,170 Q195,150 160,110" fill="url(#octopusGradient)" />
  <path d="M130,120 Q145,150 150,180 Q152,185 155,180 Q160,160 140,120" fill="url(#octopusGradient)" />
  
  <!-- 底部触手 -->
  <path d="M90,135 Q85,170 75,190 Q73,195 70,190 Q65,170 85,130" fill="url(#octopusGradient)" />
  <path d="M110,135 Q115,170 125,190 Q127,195 130,190 Q135,170 115,130" fill="url(#octopusGradient)" />
  
  <!-- 眼睛 -->
  <circle cx="80" cy="80" r="12" fill="url(#eyeGradient)" />
  <circle cx="120" cy="80" r="12" fill="url(#eyeGradient)" />
  
  <!-- 眼球 -->
  <circle cx="80" cy="80" r="6" fill="#333333" />
  <circle cx="120" cy="80" r="6" fill="#333333" />
  
  <!-- 高光 -->
  <circle cx="77" cy="77" r="3" fill="white" />
  <circle cx="117" cy="77" r="3" fill="white" />
  
  <!-- 嘴巴/笑容 -->
  <path d="M85,100 Q100,115 115,100" fill="none" stroke="#333333" stroke-width="3" stroke-linecap="round" />
</svg> 