<?xml version="1.0" encoding="UTF-8"?>
<svg width="48" height="48" viewBox="0 0 48 48" xmlns="http://www.w3.org/2000/svg">
  <defs>
    <linearGradient id="octopusGradient" x1="0%" y1="0%" x2="100%" y2="100%">
      <stop offset="0%" stop-color="#8B5CF6"/>
      <stop offset="100%" stop-color="#EC4899"/>
    </linearGradient>
    <filter id="shadow" x="-20%" y="-20%" width="140%" height="140%">
      <feDropShadow dx="0" dy="1" stdDeviation="1" flood-color="#0002"/>
    </filter>
  </defs>
  
  <!-- Background Circle -->
  <circle cx="24" cy="24" r="23" fill="white" stroke="#F0F0F0" stroke-width="1"/>
  
  <!-- Octopus Body - Cute Style -->
  <g filter="url(#shadow)">
    <circle cx="24" cy="22" r="15" fill="url(#octopusGradient)"/>
    
    <!-- Tentacles - Cute Curly Style -->
    <path d="M12,30 Q10,33 8,32 Q6,31 7,29 Q8,27 10,28 Q12,29 12,30" fill="url(#octopusGradient)" stroke="none"/>
    <path d="M16,34 Q14,38 11,38 Q8,38 9,35 Q10,32 13,33 Q16,34 16,34" fill="url(#octopusGradient)" stroke="none"/>
    <path d="M21,36 Q20,40 17,41 Q14,42 15,39 Q16,36 18,37 Q20,38 21,36" fill="url(#octopusGradient)" stroke="none"/>
    <path d="M27,36 Q28,40 31,41 Q34,42 33,39 Q32,36 30,37 Q28,38 27,36" fill="url(#octopusGradient)" stroke="none"/>
    <path d="M32,34 Q34,38 37,38 Q40,38 39,35 Q38,32 35,33 Q32,34 32,34" fill="url(#octopusGradient)" stroke="none"/>
    <path d="M36,30 Q38,33 40,32 Q42,31 41,29 Q40,27 38,28 Q36,29 36,30" fill="url(#octopusGradient)" stroke="none"/>
  </g>
  
  <!-- Eyes - Cute Style -->
  <circle cx="18" cy="19" r="4" fill="white"/>
  <circle cx="30" cy="19" r="4" fill="white"/>
  <circle cx="18" cy="19" r="2" fill="#333"/>
  <circle cx="30" cy="19" r="2" fill="#333"/>
  <circle cx="19" cy="18" r="0.8" fill="white"/>
  <circle cx="31" cy="18" r="0.8" fill="white"/>
  
  <!-- Blush -->
  <circle cx="15" cy="23" r="2.5" fill="#FF9999" opacity="0.4"/>
  <circle cx="33" cy="23" r="2.5" fill="#FF9999" opacity="0.4"/>
  
  <!-- Smile - Cute -->
  <path d="M20,25 Q24,28 28,25" stroke="white" stroke-width="1.5" stroke-linecap="round" fill="none"/>
</svg>
