<?xml version="1.0" encoding="UTF-8"?>
<svg width="48" height="48" viewBox="0 0 48 48" xmlns="http://www.w3.org/2000/svg">
  <defs>
    <linearGradient id="octopusGradient" x1="0%" y1="0%" x2="100%" y2="100%">
      <stop offset="0%" stop-color="#6366F1"/>
      <stop offset="100%" stop-color="#8B5CF6"/>
    </linearGradient>
    <filter id="shadow" x="-20%" y="-20%" width="140%" height="140%">
      <feDropShadow dx="0" dy="1" stdDeviation="1" flood-color="#0002"/>
    </filter>
  </defs>
  
  <!-- Background Circle -->
  <circle cx="24" cy="24" r="23" fill="white" stroke="#F0F0F0" stroke-width="1"/>
  
  <!-- Octopus Head -->
  <g filter="url(#shadow)">
    <circle cx="24" cy="20" r="14" fill="url(#octopusGradient)"/>
    
    <!-- Tentacles - Simplified Modern Style -->
    <path d="M14,30 C12,36 8,42 5,41 C3,40 4,36 7,35 C10,34 12,36 14,30" fill="url(#octopusGradient)" stroke="none"/>
    <path d="M19,32 C18,38 16,44 12,44 C9,44 10,40 13,39 C16,38 17,38 19,32" fill="url(#octopusGradient)" stroke="none"/>
    <path d="M29,32 C30,38 32,44 36,44 C39,44 38,40 35,39 C32,38 31,38 29,32" fill="url(#octopusGradient)" stroke="none"/>
    <path d="M34,30 C36,36 40,42 43,41 C45,40 44,36 41,35 C38,34 36,36 34,30" fill="url(#octopusGradient)" stroke="none"/>
  </g>
  
  <!-- Eyes - Minimal Style -->
  <circle cx="19" cy="18" r="3" fill="white"/>
  <circle cx="29" cy="18" r="3" fill="white"/>
  <circle cx="19" cy="18" r="1.5" fill="#333"/>
  <circle cx="29" cy="18" r="1.5" fill="#333"/>
  
  <!-- Smile - Minimal -->
  <path d="M21,24 C22,25 26,25 27,24" stroke="white" stroke-width="1.2" stroke-linecap="round" fill="none"/>
</svg>
