<svg width="40" height="40" viewBox="0 0 40 40" fill="none" xmlns="http://www.w3.org/2000/svg">
  <rect width="40" height="40" rx="20" fill="#F3F0FF"/>
  <path d="M20 10C17.7909 10 16 11.7909 16 14V16H24V14C24 11.7909 22.2091 10 20 10Z" fill="#7466F0"/>
  <rect x="11" y="16" width="18" height="8" rx="2" fill="#7466F0"/>
  <path d="M21 24V34C21 34.5523 20.5523 35 20 35H18C17.4477 35 17 34.5523 17 34V24" fill="#7466F0"/>
  <path d="M25 24V34C25 34.5523 24.5523 35 24 35H24" fill="#7466F0"/>
  <circle cx="14" cy="20" r="1" fill="white"/>
  <circle cx="26" cy="20" r="1" fill="white"/>
</svg> 