<svg width="1440" height="800" viewBox="0 0 1440 800" fill="none" xmlns="http://www.w3.org/2000/svg">
  <defs>
    <linearGradient id="gradient1" x1="0%" y1="0%" x2="100%" y2="100%">
      <stop offset="0%" stop-color="#7466F0" stop-opacity="0.3"/>
      <stop offset="100%" stop-color="#A891FF" stop-opacity="0.1"/>
    </linearGradient>
    <linearGradient id="gradient2" x1="100%" y1="0%" x2="0%" y2="100%">
      <stop offset="0%" stop-color="#A891FF" stop-opacity="0.2"/>
      <stop offset="100%" stop-color="#7466F0" stop-opacity="0.05"/>
    </linearGradient>
    <linearGradient id="gradient3" x1="50%" y1="0%" x2="50%" y2="100%">
      <stop offset="0%" stop-color="#F3F0FF" stop-opacity="0.3"/>
      <stop offset="100%" stop-color="#7466F0" stop-opacity="0.1"/>
    </linearGradient>
    
    <filter id="blur1" x="-50%" y="-50%" width="200%" height="200%">
      <feGaussianBlur in="SourceGraphic" stdDeviation="30" />
    </filter>
    <filter id="blur2" x="-50%" y="-50%" width="200%" height="200%">
      <feGaussianBlur in="SourceGraphic" stdDeviation="15" />
    </filter>
    
    <!-- 定义动画 -->
    <animate id="wave1Anim" attributeName="d" dur="20s" repeatCount="indefinite" />
    <animate id="wave2Anim" attributeName="d" dur="15s" repeatCount="indefinite" />
    <animate id="wave3Anim" attributeName="d" dur="25s" repeatCount="indefinite" />
  </defs>
  
  <!-- 第一层模糊的光斑背景 -->
  <ellipse cx="50%" cy="45%" rx="600" ry="300" fill="url(#gradient1)" filter="url(#blur1)" opacity="0.6">
    <animateTransform attributeName="transform" type="translate" values="0,0; 20,-10; 0,0; -20,10; 0,0" dur="30s" repeatCount="indefinite" />
  </ellipse>
  
  <ellipse cx="30%" cy="60%" rx="400" ry="200" fill="url(#gradient2)" filter="url(#blur1)" opacity="0.5">
    <animateTransform attributeName="transform" type="translate" values="0,0; -20,10; 0,0; 20,-10; 0,0" dur="25s" repeatCount="indefinite" />
  </ellipse>
  
  <ellipse cx="70%" cy="30%" rx="350" ry="180" fill="url(#gradient3)" filter="url(#blur1)" opacity="0.4">
    <animateTransform attributeName="transform" type="translate" values="0,0; 15,15; 0,0; -15,-15; 0,0" dur="20s" repeatCount="indefinite" />
  </ellipse>
  
  <!-- 波浪线 -->
  <path d="M-70.5 267.5C80.5 156.5 231.5 336.5 382.5 316C533.5 295.5 584.5 77.5 735.5 65.5C886.5 53.5 937.5 212.5 1088.5 233C1239.5 253.5 1390.5 145.5 1541.5 185C1692.5 224.5 1843.5 312.5 1994.5 267.5" stroke="url(#gradient1)" stroke-opacity="0.7" stroke-width="2">
    <animate attributeName="d" values="
      M-70.5 267.5C80.5 156.5 231.5 336.5 382.5 316C533.5 295.5 584.5 77.5 735.5 65.5C886.5 53.5 937.5 212.5 1088.5 233C1239.5 253.5 1390.5 145.5 1541.5 185C1692.5 224.5 1843.5 312.5 1994.5 267.5;
      M-70.5 257.5C80.5 176.5 231.5 316.5 382.5 296C533.5 275.5 584.5 97.5 735.5 85.5C886.5 73.5 937.5 232.5 1088.5 253C1239.5 273.5 1390.5 125.5 1541.5 165C1692.5 244.5 1843.5 332.5 1994.5 247.5;
      M-70.5 267.5C80.5 156.5 231.5 336.5 382.5 316C533.5 295.5 584.5 77.5 735.5 65.5C886.5 53.5 937.5 212.5 1088.5 233C1239.5 253.5 1390.5 145.5 1541.5 185C1692.5 224.5 1843.5 312.5 1994.5 267.5"
      dur="20s" repeatCount="indefinite" />
  </path>
  
  <path d="M-70.5 438.5C80.5 327.5 231.5 507.5 382.5 487C533.5 466.5 584.5 248.5 735.5 236.5C886.5 224.5 937.5 383.5 1088.5 404C1239.5 424.5 1390.5 316.5 1541.5 356C1692.5 395.5 1843.5 483.5 1994.5 438.5" stroke="url(#gradient2)" stroke-opacity="0.6" stroke-width="2">
    <animate attributeName="d" values="
      M-70.5 438.5C80.5 327.5 231.5 507.5 382.5 487C533.5 466.5 584.5 248.5 735.5 236.5C886.5 224.5 937.5 383.5 1088.5 404C1239.5 424.5 1390.5 316.5 1541.5 356C1692.5 395.5 1843.5 483.5 1994.5 438.5;
      M-70.5 458.5C80.5 347.5 231.5 487.5 382.5 467C533.5 446.5 584.5 268.5 735.5 256.5C886.5 244.5 937.5 363.5 1088.5 384C1239.5 404.5 1390.5 336.5 1541.5 376C1692.5 415.5 1843.5 463.5 1994.5 418.5;
      M-70.5 438.5C80.5 327.5 231.5 507.5 382.5 487C533.5 466.5 584.5 248.5 735.5 236.5C886.5 224.5 937.5 383.5 1088.5 404C1239.5 424.5 1390.5 316.5 1541.5 356C1692.5 395.5 1843.5 483.5 1994.5 438.5"
      dur="15s" repeatCount="indefinite" />
  </path>
  
  <path d="M-70.5 609.5C80.5 498.5 231.5 678.5 382.5 658C533.5 637.5 584.5 419.5 735.5 407.5C886.5 395.5 937.5 554.5 1088.5 575C1239.5 595.5 1390.5 487.5 1541.5 527C1692.5 566.5 1843.5 654.5 1994.5 609.5" stroke="url(#gradient3)" stroke-opacity="0.5" stroke-width="2">
    <animate attributeName="d" values="
      M-70.5 609.5C80.5 498.5 231.5 678.5 382.5 658C533.5 637.5 584.5 419.5 735.5 407.5C886.5 395.5 937.5 554.5 1088.5 575C1239.5 595.5 1390.5 487.5 1541.5 527C1692.5 566.5 1843.5 654.5 1994.5 609.5;
      M-70.5 629.5C80.5 518.5 231.5 658.5 382.5 638C533.5 617.5 584.5 439.5 735.5 427.5C886.5 415.5 937.5 534.5 1088.5 555C1239.5 575.5 1390.5 507.5 1541.5 547C1692.5 586.5 1843.5 634.5 1994.5 589.5;
      M-70.5 609.5C80.5 498.5 231.5 678.5 382.5 658C533.5 637.5 584.5 419.5 735.5 407.5C886.5 395.5 937.5 554.5 1088.5 575C1239.5 595.5 1390.5 487.5 1541.5 527C1692.5 566.5 1843.5 654.5 1994.5 609.5"
      dur="25s" repeatCount="indefinite" />
  </path>
</svg> 